<svg width="300" height="300" viewBox="0 0 300 300" fill="none" xmlns="http://www.w3.org/2000/svg">
<path d="M250 150C250 205.228 205.228 250 150 250V250C94.7715 250 50 205.228 50 150V150C50 94.7715 94.7715 50 150 50V50C205.228 50 250 94.7715 250 150V150Z" fill="#FFE4DA"/>
<path d="M173.886 148.689C171.025 148.867 168.188 149.348 165.241 150.407C166.469 151.023 167.386 150.553 168.28 150.372C170.172 149.985 172.128 149.795 173.886 148.689ZM206.288 172.157C201.75 172.879 197.304 173.805 193.262 176.019C198.012 176.057 202.294 174.54 206.288 172.157ZM124.232 149.243C129.917 146.859 135.957 142.664 138.736 139.151C134.126 141.813 129.748 144.315 125.694 147.337C125.146 147.747 124.386 148.008 124.232 149.243ZM89.8625 126.775C92.0052 130.856 98.9705 135.04 103.729 135.176C99.3318 132.036 95.2625 128.364 89.8625 126.775ZM73.1278 146.425C78.4185 147.508 83.1438 146.004 87.8345 144.261C88.0318 144.188 88.3265 143.82 88.2972 143.772C88.1025 143.479 87.8518 143.213 87.5812 142.983C86.8238 142.34 85.9318 142.527 85.1052 142.692C81.8505 143.333 78.6012 144.008 75.3598 144.723C74.5612 144.899 73.6745 145.064 73.1278 146.425ZM138.236 133.085C134.198 127.857 130.406 122.288 124.146 118.424C125.682 124.443 130.52 129.484 138.236 133.085ZM212.788 157.98C213.477 151.504 211.205 139.74 208.622 136.327C206.972 144.139 209.818 150.755 212.788 157.98ZM177.561 140.729C177.525 133.121 174.214 123.856 170.769 122.247C170.248 129.489 173.465 135.149 177.561 140.729ZM172.914 144.82C172.221 143.635 171.025 143.613 170.036 143.3C163.054 141.093 155.916 139.652 148.669 138.688C146.525 138.401 144.946 138.904 143.358 140.364C138.629 144.713 133.352 148.331 127.748 151.472C126.128 152.383 124.458 153.165 122.6 153.427C121.322 153.607 120.113 153.44 119.332 152.213C118.554 150.993 118.897 149.815 119.573 148.721C120.422 147.344 121.62 146.288 122.866 145.265C125.97 142.724 129.292 140.491 133.056 138.471C131.76 137.525 130.753 137.831 129.842 137.876C124.914 138.115 119.996 138.551 115.066 138.679C112.152 138.755 110.244 140.047 108.74 142.401C106.882 145.305 104.94 148.161 102.914 150.949C101.689 152.64 100.292 154.217 98.4585 155.32C97.3412 155.992 96.1825 156.359 94.9838 155.583C93.5918 154.681 93.6718 153.291 93.9692 151.921C94.3452 150.189 95.2812 148.729 96.3798 147.387C97.5438 145.965 98.7745 144.6 99.7638 142.753C98.4305 143.363 97.0865 143.947 95.7692 144.585C90.8745 146.951 85.8452 148.931 80.4465 149.825C77.7558 150.271 75.0358 150.451 72.3705 149.635C70.8105 149.156 69.2878 148.473 69.0332 146.552C68.7812 144.644 70.0025 143.628 71.4358 142.755C73.0398 141.776 74.8385 141.336 76.6332 140.904C81.5518 139.717 86.5732 139.111 91.5732 138.387C93.1478 138.16 94.7172 137.895 96.2278 137.656C96.5518 136.189 95.3918 136.113 94.7505 135.727C92.4145 134.316 90.0958 132.888 88.1198 130.969C87.3132 130.188 86.4998 129.411 86.0372 128.368C85.4185 126.973 84.9305 125.52 85.9638 124.145C86.9985 122.764 88.5092 122.815 90.0145 123.101C92.4892 123.572 94.6878 124.745 96.7558 126.119C100.888 128.863 104.99 131.649 109.034 134.521C110.094 135.273 111.029 135.815 112.389 135.656C118.517 134.939 124.68 134.668 130.845 134.463C131.205 134.451 131.565 134.401 131.757 133.8C129.766 131.96 127.658 130.091 125.637 128.131C123.361 125.927 121.818 123.245 120.944 120.207C120.437 118.448 120.401 116.643 121.978 115.444C123.612 114.205 125.313 114.939 126.782 115.971C130.664 118.704 133.892 122.151 136.933 125.763C138.932 128.135 140.842 130.588 142.684 133.085C143.552 134.263 144.48 134.985 145.993 135.117C154.641 135.868 163.098 137.652 171.409 140.199C171.746 140.301 172.126 140.259 172.726 140.301C172.637 138.773 171.596 137.803 170.97 136.689C168.928 133.057 167.733 129.184 167.348 125.056C167.292 124.443 167.301 123.815 167.354 123.2C167.533 121.156 167.933 119.117 170.212 118.485C172.46 117.861 173.942 119.336 175.2 120.951C176.91 123.147 177.87 125.72 178.536 128.376C179.681 132.945 180.746 137.536 181.752 142.137C182.065 143.569 182.584 144.592 184.014 145.245C193.094 149.393 201.262 154.972 208.804 161.512C209.169 161.828 209.609 162.057 210.205 162.452C210.686 160.692 209.625 159.448 209.16 158.169C207.932 154.787 206.55 151.452 205.693 147.955C204.71 143.943 204.298 139.881 205.372 135.821C205.832 134.079 206.572 132.431 208.625 132.272C210.684 132.112 211.708 133.665 212.449 135.284C213.642 137.893 214.262 140.688 214.817 143.488C216.248 150.692 216.836 157.981 216.953 165.295C216.996 168.109 217.876 170.228 219.934 172.157C222.917 174.952 225.705 177.965 228.502 180.955C229.38 181.892 230.928 183.115 229.674 184.393C228.128 185.972 227.133 184.084 226.145 183.093C223.081 180.016 220.073 176.883 216.969 173.845C214.805 171.732 214.494 171.733 211.877 173.303C205.777 176.965 199.285 179.457 192.108 179.937C190.508 180.043 188.88 180.152 187.345 179.547C185.361 178.761 184.941 176.908 186.464 175.429C187.804 174.127 189.534 173.396 191.253 172.709C196.07 170.784 201.085 169.529 206.133 168.376C207.29 168.111 208.558 168.143 209.516 167.364C209.601 166.521 209.036 166.187 208.586 165.777C201.772 159.555 194.348 154.215 186.168 149.941C184.416 149.028 183.006 148.817 181.046 149.817C173.785 153.523 165.808 154.487 157.78 155.053C157.056 155.104 156.28 155.024 155.585 154.809C153.678 154.219 153.241 152.589 154.58 151.067C155.494 150.025 156.758 149.505 158.028 149C161.705 147.537 165.545 146.659 169.394 145.8C170.557 145.541 171.802 145.532 172.914 144.82Z" fill="#414151"/>
</svg>
