<svg width="200" height="200" viewBox="0 0 200 200" fill="none" xmlns="http://www.w3.org/2000/svg">
<path d="M200 100C200 155.228 155.228 200 100 200V200C44.7715 200 0 155.228 0 100V100C0 44.7715 44.7715 -2.70986e-06 100 -2.70986e-06V-2.70986e-06C155.228 -2.70986e-06 200 44.7715 200 100V100Z" fill="#FFE4DA"/>
<path d="M123.886 98.6893C121.025 98.8667 118.188 99.348 115.241 100.407C116.469 101.023 117.386 100.553 118.28 100.372C120.172 99.9853 122.128 99.7947 123.886 98.6893ZM156.288 122.157C151.75 122.879 147.304 123.805 143.262 126.019C148.012 126.057 152.294 124.54 156.288 122.157ZM74.2318 99.2427C79.9172 96.8587 85.9572 92.664 88.7358 89.1507C84.1265 91.8133 79.7478 94.3147 75.6945 97.3373C75.1465 97.7467 74.3865 98.008 74.2318 99.2427ZM39.8625 76.7747C42.0052 80.856 48.9705 85.04 53.7292 85.176C49.3318 82.036 45.2625 78.364 39.8625 76.7747ZM23.1278 96.4253C28.4185 97.508 33.1438 96.004 37.8345 94.2613C38.0318 94.188 38.3265 93.82 38.2972 93.772C38.1025 93.4787 37.8518 93.2133 37.5812 92.9827C36.8238 92.34 35.9318 92.5267 35.1052 92.692C31.8505 93.3333 28.6012 94.008 25.3598 94.7227C24.5612 94.8987 23.6745 95.064 23.1278 96.4253ZM88.2358 83.0853C84.1985 77.8573 80.4065 72.288 74.1465 68.424C75.6825 74.4427 80.5198 79.484 88.2358 83.0853ZM162.788 107.98C163.477 101.504 161.205 89.74 158.622 86.3267C156.972 94.1387 159.818 100.755 162.788 107.98ZM127.561 90.7293C127.525 83.1213 124.214 73.856 120.769 72.2467C120.248 79.4893 123.465 85.1493 127.561 90.7293ZM122.914 94.82C122.221 93.6347 121.025 93.6133 120.036 93.3C113.054 91.0933 105.916 89.652 98.6692 88.688C96.5252 88.4013 94.9465 88.904 93.3585 90.364C88.6292 94.7133 83.3518 98.3307 77.7478 101.472C76.1278 102.383 74.4585 103.165 72.5998 103.427C71.3225 103.607 70.1132 103.44 69.3318 102.213C68.5545 100.993 68.8972 99.8147 69.5732 98.7213C70.4225 97.344 71.6198 96.288 72.8665 95.2653C75.9705 92.724 79.2918 90.4907 83.0558 88.4707C81.7598 87.5253 80.7532 87.8307 79.8425 87.876C74.9145 88.1147 69.9958 88.5507 65.0665 88.6787C62.1518 88.7547 60.2438 90.0467 58.7398 92.4013C56.8825 95.3053 54.9398 98.1613 52.9145 100.949C51.6892 102.64 50.2918 104.217 48.4585 105.32C47.3412 105.992 46.1825 106.359 44.9838 105.583C43.5918 104.681 43.6718 103.291 43.9692 101.921C44.3452 100.189 45.2812 98.7293 46.3798 97.3867C47.5438 95.9653 48.7745 94.6 49.7638 92.7533C48.4305 93.3627 47.0865 93.9467 45.7692 94.5853C40.8745 96.9507 35.8452 98.9307 30.4465 99.8253C27.7558 100.271 25.0358 100.451 22.3705 99.6347C20.8105 99.156 19.2878 98.4733 19.0332 96.552C18.7812 94.644 20.0025 93.628 21.4358 92.7547C23.0398 91.776 24.8385 91.336 26.6332 90.904C31.5518 89.7173 36.5732 89.1107 41.5732 88.3867C43.1478 88.16 44.7172 87.8947 46.2278 87.656C46.5518 86.1893 45.3918 86.1133 44.7505 85.7267C42.4145 84.316 40.0958 82.888 38.1198 80.9693C37.3132 80.188 36.4998 79.4107 36.0372 78.368C35.4185 76.9733 34.9305 75.52 35.9638 74.1453C36.9985 72.764 38.5092 72.8147 40.0145 73.1013C42.4892 73.572 44.6878 74.7453 46.7558 76.1187C50.8878 78.8627 54.9905 81.6493 59.0345 84.5213C60.0945 85.2733 61.0292 85.8147 62.3892 85.656C68.5172 84.9387 74.6798 84.668 80.8452 84.4627C81.2052 84.4507 81.5652 84.4013 81.7572 83.8C79.7665 81.96 77.6585 80.0907 75.6372 78.1307C73.3612 75.9267 71.8185 73.2453 70.9438 70.2067C70.4372 68.448 70.4012 66.6427 71.9785 65.444C73.6118 64.2053 75.3132 64.9387 76.7825 65.9707C80.6638 68.704 83.8918 72.1507 86.9332 75.7627C88.9318 78.1347 90.8425 80.588 92.6838 83.0853C93.5518 84.2627 94.4798 84.9853 95.9932 85.1173C104.641 85.868 113.098 87.652 121.409 90.1987C121.746 90.3013 122.126 90.2587 122.726 90.3013C122.637 88.7733 121.596 87.8027 120.97 86.6893C118.928 83.0573 117.733 79.184 117.348 75.056C117.292 74.4427 117.301 73.8147 117.354 73.2C117.533 71.156 117.933 69.1173 120.212 68.4853C122.46 67.8613 123.942 69.336 125.2 70.9507C126.91 73.1467 127.87 75.72 128.536 78.376C129.681 82.9453 130.746 87.536 131.752 92.1373C132.065 93.5693 132.584 94.592 134.014 95.2453C143.094 99.3933 151.262 104.972 158.804 111.512C159.169 111.828 159.609 112.057 160.205 112.452C160.686 110.692 159.625 109.448 159.16 108.169C157.932 104.787 156.55 101.452 155.693 97.9547C154.71 93.9427 154.298 89.8813 155.372 85.8213C155.832 84.0787 156.572 82.4307 158.625 82.272C160.684 82.112 161.708 83.6653 162.449 85.284C163.642 87.8933 164.262 90.688 164.817 93.488C166.248 100.692 166.836 107.981 166.953 115.295C166.996 118.109 167.876 120.228 169.934 122.157C172.917 124.952 175.705 127.965 178.502 130.955C179.38 131.892 180.928 133.115 179.674 134.393C178.128 135.972 177.133 134.084 176.145 133.093C173.081 130.016 170.073 126.883 166.969 123.845C164.805 121.732 164.494 121.733 161.877 123.303C155.777 126.965 149.285 129.457 142.108 129.937C140.508 130.043 138.88 130.152 137.345 129.547C135.361 128.761 134.941 126.908 136.464 125.429C137.804 124.127 139.534 123.396 141.253 122.709C146.07 120.784 151.085 119.529 156.133 118.376C157.29 118.111 158.558 118.143 159.516 117.364C159.601 116.521 159.036 116.187 158.586 115.777C151.772 109.555 144.348 104.215 136.168 99.9413C134.416 99.028 133.006 98.8173 131.046 99.8173C123.785 103.523 115.808 104.487 107.78 105.053C107.056 105.104 106.28 105.024 105.585 104.809C103.678 104.219 103.241 102.589 104.58 101.067C105.494 100.025 106.758 99.5053 108.028 99C111.705 97.5373 115.545 96.6587 119.394 95.8C120.557 95.5413 121.802 95.532 122.914 94.82Z" fill="#414151"/>
</svg>
